<svg id="Layer_1" data-name="Layer 1" xmlns="http://www.w3.org/2000/svg" viewBox="0 0 612 792"><defs><style>.cls-1{fill:blue;}</style></defs><path class="cls-1" d="M305.16,232.07c10.32-14.45,19.67-29.5,31-42.92,22.32-26.53,50.6-43.84,84.93-50.76,72.86-14.68,147.61,35.31,162,108.3,7.7,39.06.14,75.8-16.63,111.09-16.13,33.92-38.3,63.94-61.74,93-52.3,64.89-111.16,123.58-171.88,180.47-4.38,4.1-8.66,8.31-13.17,12.26-8.09,7.1-18.94,7.26-26.8,0C222.89,578.89,155,512.29,96.41,436.89,75.13,409.5,55.31,381.1,41.61,349c-12-28.16-17.92-57.36-14.81-88.15,5.89-58.39,48.48-107.65,105.88-120.69,57-13,104.14,5.53,142.29,48.1,10.78,12,18.76,26.57,28,40A40.91,40.91,0,0,1,305.16,232.07Z"/></svg>